{"title":"Sloppy the Psychotic (2012) DVDRip - RadioResearch","uid":8445645,"size":845743350,"categoryP":"video","categoryS":"movies","magnet":"?xt=urn:btih:c619983484a7e4ba11d8719644dceb974e1872c4&amp;dn=Sloppy+the+Psychotic+%282012%29+DVDRip+-+RadioResearch&amp;tr=udp%3A%2F%2Ftracker.openbittorrent.com%3A80&amp;tr=udp%3A%2F%2Fopen.demonii.com%3A1337&amp;tr=udp%3A%2F%2Ftracker.coppersurfer.tk%3A6969&amp;tr=udp%3A%2F%2Fexodus.desync.com%3A6969","seeders":0,"leechers":0,"uploader":"RadioResearch","files":3,"time":1367877999,"description":"*******************************************************************************\n              Sloppy the Psychotic (2012) DVDRip - RadioResearch\n*******************************************************************************\n\n-------------------------------------------------------------------------------\n                              General Information\n-------------------------------------------------------------------------------\nType.................: Movie\n\n\n\nVideo Format.........: AVI\nVideo Bitrate........: 1500\nResolution...........: 640 x 372\nColor................: 8 bit\nFPS..................: 29.970\nSource...............: DVD 1.720:1\nOriginal Format......: NTSC\nGenre................: Horror\nIMDb Rating..........: 5.0\nMovie Information....: http://www.imdb.com/title/tt2210985/\n\n-------------------------------------------------------------------------------\n                               Post Information\n-------------------------------------------------------------------------------\nPosted by............: RadioResearch\nPosted on............: 5/6/2013\n\n-------------------------------------------------------------------------------\n                                 Release Notes\n-------------------------------------------------------------------------------\nSEEDBOX SUPPORTED!!\n\nMeet Mike, A man whose only goal in life was to bring joy to children... As \n&quot;Sloppy the Clown&quot;. After a cruel twist of fate finds him without his beloved \njob he goes into business for himself. After a bout of bad luck Mike spirals \ncompletely out of control. Witness a good man go bad, then totally mad in... \nSloppy the Psychotic.\n\nEnjoy!\nRadioResearch\n\nGeneral\nComplete name                            : G:Sloppy the Psychotic (2012) DVDRip \n- RadioResearchSLOPPY_DVD-{RadioResearch}.avi\nFormat                                   : AVI\nFormat/Info                              : Audio Video Interleave\nFile size                                : 807 MiB\nDuration                                 : 1h 15mn\nOverall bit rate                         : 1 500 Kbps\nMovie name                               : SLOPPY_DVD_MENU_2.Title1.DVDRip\nWriting application                      : Lavf53.32.100\nOriginal source form/Name                : SLOPPY_DVD_MENU_2\n\nVideo\nID                                       : 0\nFormat                                   : MPEG-4 Visual\nFormat profile                           : Advanced Simple@L5\nFormat settings, BVOP                    : 2\nFormat settings, QPel                    : No\nFormat settings, GMC                     : No warppoints\nFormat settings, Matrix                  : Default (H.263)\nMuxing mode                              : Packed bitstream\nCodec ID                                 : XVID\nCodec ID/Hint                            : XviD\nDuration                                 : 1h 15mn\nBit rate                                 : 1 424 Kbps\nWidth                                    : 640 pixels\nHeight                                   : 372 pixels\nDisplay aspect ratio                     : 1.720\nFrame rate                               : 29.970 fps\nColor space                              : YUV\nChroma subsampling                       : 4:2:0\nBit depth                                : 8 bits\nScan type                                : Progressive\nCompression mode                         : Lossy\nBits/(Pixel*Frame)                       : 0.200\nStream size                              : 766 MiB (95%)\nWriting library                          : XviD 64\n\nAudio\nID                                       : 1\nFormat                                   : AC-3\nFormat/Info                              : Audio Coding 3\nMode extension                           : CM (complete main)\nFormat settings, Endianness              : Big\nCodec ID                                 : 2000\nDuration                                 : 1h 15mn\nBit rate mode                            : Constant\nBit rate                                 : 64.0 Kbps\nChannel(s)                               : 2 channels\nChannel positions                        : Front: L R\nSampling rate                            : 48.0 KHz\nBit depth                                : 16 bits\nCompression mode                         : Lossy\nStream size                              : 34.3 MiB (4%)\nAlignment                                : Aligned on interleaves\nInterleave, duration                     : 32 ms (0.96 video frame)\n\nAVI FILE MD5 HASH  e7449bee3376f80ff66fde3a579ceb64 \n\n\n\n-------------------------------------------------------------------------------\nGenerated with Cool NFO Creator - http://fly.to/coolbeans\n-------------------------------------------------------------------------------\n","torrent":{"xt":"urn:btih:c619983484a7e4ba11d8719644dceb974e1872c4","amp;dn":"Sloppy+the+Psychotic+%282012%29+DVDRip+-+RadioResearch","amp;tr":["udp%3A%2F%2Ftracker.openbittorrent.com%3A80","udp%3A%2F%2Fopen.demonii.com%3A1337","udp%3A%2F%2Ftracker.coppersurfer.tk%3A6969","udp%3A%2F%2Fexodus.desync.com%3A6969"],"infoHash":"c619983484a7e4ba11d8719644dceb974e1872c4","infoHashBuffer":{"type":"Buffer","data":[198,25,152,52,132,167,228,186,17,216,113,150,68,220,235,151,78,24,114,196]},"announce":[],"urlList":[]}}